STARTFONT 2.1
FONT --mono_size_11_07_design_1-Normal-R-Normal--16-160-72-72-P-0--
SIZE 16 72 72
FONTBOUNDINGBOX 13 15 0 -4
STARTPROPERTIES 21
BREAK_CHAR 32
CAP_HEIGHT 11
CODEPAGE "MS Windows 1252 Western (ANSI)"
CREATION_YEAR 2026
DEFAULT_CHAR -1
ENC_MODE 2
FAMILY_NAME "mono_size_11_07_design_1"
FONTNAME_REGISTRY "-"
FONT_ASCENT 11
FONT_DESCENT 5
HI_VERSION 1
PIXEL_SIZE 16
POINT_SIZE 160
RESOLUTION_X 72
RESOLUTION_Y 72
SETWIDTH_NAME "Normal"
SLANT "R"
SPACING "P"
WEIGHT 400
WEIGHT_NAME "Normal"
X_HEIGHT 7
ENDPROPERTIES
CHARS 150
STARTCHAR .uni0020
ENCODING 32
SWIDTH 500 0
DWIDTH 8 0
BBX 0 0 0 0
BITMAP
ENDCHAR
STARTCHAR .uni0021
ENCODING 33
SWIDTH 500 0
DWIDTH 8 0
BBX 1 11 3 0
BITMAP
80
80
80
80
80
80
80
80
00
00
80
ENDCHAR
STARTCHAR .uni0022
ENCODING 34
SWIDTH 500 0
DWIDTH 8 0
BBX 3 3 2 8
BITMAP
A0
A0
A0
ENDCHAR
STARTCHAR .uni0023
ENCODING 35
SWIDTH 500 0
DWIDTH 8 0
BBX 7 7 0 2
BITMAP
28
28
FE
28
FE
28
28
ENDCHAR
STARTCHAR .uni0024
ENCODING 36
SWIDTH 500 0
DWIDTH 8 0
BBX 5 11 1 0
BITMAP
20
20
70
88
80
70
08
88
70
20
20
ENDCHAR
STARTCHAR .uni0025
ENCODING 37
SWIDTH 500 0
DWIDTH 8 0
BBX 7 7 0 2
BITMAP
42
A4
48
10
24
4A
84
ENDCHAR
STARTCHAR .uni0026
ENCODING 38
SWIDTH 500 0
DWIDTH 8 0
BBX 7 11 0 0
BITMAP
20
50
88
88
50
20
50
8A
84
8A
70
ENDCHAR
STARTCHAR .uni0027
ENCODING 39
SWIDTH 500 0
DWIDTH 8 0
BBX 1 3 3 8
BITMAP
80
80
80
ENDCHAR
STARTCHAR .uni0028
ENCODING 40
SWIDTH 500 0
DWIDTH 8 0
BBX 3 13 2 -2
BITMAP
20
40
80
80
80
80
80
80
80
80
80
40
20
ENDCHAR
STARTCHAR .uni0029
ENCODING 41
SWIDTH 500 0
DWIDTH 8 0
BBX 3 13 2 -2
BITMAP
80
40
20
20
20
20
20
20
20
20
20
40
80
ENDCHAR
STARTCHAR .uni002A
ENCODING 42
SWIDTH 500 0
DWIDTH 8 0
BBX 7 7 0 2
BITMAP
10
92
54
38
54
92
10
ENDCHAR
STARTCHAR .uni002B
ENCODING 43
SWIDTH 500 0
DWIDTH 8 0
BBX 7 7 0 2
BITMAP
10
10
10
FE
10
10
10
ENDCHAR
STARTCHAR .uni002C
ENCODING 44
SWIDTH 500 0
DWIDTH 8 0
BBX 3 3 2 -2
BITMAP
20
40
80
ENDCHAR
STARTCHAR .uni002D
ENCODING 45
SWIDTH 500 0
DWIDTH 8 0
BBX 7 1 0 5
BITMAP
FE
ENDCHAR
STARTCHAR .uni002E
ENCODING 46
SWIDTH 500 0
DWIDTH 8 0
BBX 1 1 3 0
BITMAP
80
ENDCHAR
STARTCHAR .uni002F
ENCODING 47
SWIDTH 500 0
DWIDTH 8 0
BBX 7 7 0 2
BITMAP
02
04
08
10
20
40
80
ENDCHAR
STARTCHAR .uni0030
ENCODING 48
SWIDTH 500 0
DWIDTH 8 0
BBX 7 11 0 0
BITMAP
38
44
82
86
8A
92
A2
C2
82
44
38
ENDCHAR
STARTCHAR .uni0031
ENCODING 49
SWIDTH 500 0
DWIDTH 8 0
BBX 3 11 2 0
BITMAP
20
60
A0
20
20
20
20
20
20
20
20
ENDCHAR
STARTCHAR .uni0032
ENCODING 50
SWIDTH 500 0
DWIDTH 8 0
BBX 7 11 0 0
BITMAP
38
44
82
02
04
08
10
20
40
80
FE
ENDCHAR
STARTCHAR .uni0033
ENCODING 51
SWIDTH 500 0
DWIDTH 8 0
BBX 7 11 0 0
BITMAP
38
44
82
02
04
18
04
02
82
44
38
ENDCHAR
STARTCHAR .uni0034
ENCODING 52
SWIDTH 500 0
DWIDTH 8 0
BBX 7 11 0 0
BITMAP
04
0C
14
24
44
FE
04
04
04
04
04
ENDCHAR
STARTCHAR .uni0035
ENCODING 53
SWIDTH 500 0
DWIDTH 8 0
BBX 7 11 0 0
BITMAP
FE
80
80
80
80
F8
04
02
82
44
38
ENDCHAR
STARTCHAR .uni0036
ENCODING 54
SWIDTH 500 0
DWIDTH 8 0
BBX 7 11 0 0
BITMAP
38
44
82
80
80
B8
C4
82
82
44
38
ENDCHAR
STARTCHAR .uni0037
ENCODING 55
SWIDTH 500 0
DWIDTH 8 0
BBX 7 11 0 0
BITMAP
FE
02
02
04
08
10
10
10
10
10
10
ENDCHAR
STARTCHAR .uni0038
ENCODING 56
SWIDTH 500 0
DWIDTH 8 0
BBX 7 11 0 0
BITMAP
38
44
82
82
44
38
44
82
82
44
38
ENDCHAR
STARTCHAR .uni0039
ENCODING 57
SWIDTH 500 0
DWIDTH 8 0
BBX 7 11 0 0
BITMAP
38
44
82
82
82
46
3A
02
82
44
38
ENDCHAR
STARTCHAR .uni003A
ENCODING 58
SWIDTH 500 0
DWIDTH 8 0
BBX 1 7 3 2
BITMAP
80
00
00
00
00
00
80
ENDCHAR
STARTCHAR .uni003B
ENCODING 59
SWIDTH 500 0
DWIDTH 8 0
BBX 3 9 2 0
BITMAP
20
00
00
00
00
00
20
40
80
ENDCHAR
STARTCHAR .uni003C
ENCODING 60
SWIDTH 500 0
DWIDTH 8 0
BBX 5 9 1 1
BITMAP
08
10
20
40
80
40
20
10
08
ENDCHAR
STARTCHAR .uni003D
ENCODING 61
SWIDTH 500 0
DWIDTH 8 0
BBX 7 5 0 3
BITMAP
FE
00
00
00
FE
ENDCHAR
STARTCHAR .uni003E
ENCODING 62
SWIDTH 500 0
DWIDTH 8 0
BBX 5 9 1 1
BITMAP
80
40
20
10
08
10
20
40
80
ENDCHAR
STARTCHAR .uni003F
ENCODING 63
SWIDTH 500 0
DWIDTH 8 0
BBX 7 11 0 0
BITMAP
38
44
82
82
04
08
10
10
10
00
10
ENDCHAR
STARTCHAR .uni0040
ENCODING 64
SWIDTH 500 0
DWIDTH 8 0
BBX 7 11 0 0
BITMAP
38
44
82
9A
AA
AA
AA
9C
80
42
3C
ENDCHAR
STARTCHAR .uni0041
ENCODING 65
SWIDTH 500 0
DWIDTH 8 0
BBX 7 11 0 0
BITMAP
38
44
82
82
82
FE
82
82
82
82
82
ENDCHAR
STARTCHAR .uni0042
ENCODING 66
SWIDTH 500 0
DWIDTH 8 0
BBX 7 11 0 0
BITMAP
F8
84
82
82
84
F8
84
82
82
84
F8
ENDCHAR
STARTCHAR .uni0043
ENCODING 67
SWIDTH 500 0
DWIDTH 8 0
BBX 7 11 0 0
BITMAP
38
44
82
80
80
80
80
80
82
44
38
ENDCHAR
STARTCHAR .uni0044
ENCODING 68
SWIDTH 500 0
DWIDTH 8 0
BBX 7 11 0 0
BITMAP
F8
84
82
82
82
82
82
82
82
84
F8
ENDCHAR
STARTCHAR .uni0045
ENCODING 69
SWIDTH 500 0
DWIDTH 8 0
BBX 7 11 0 0
BITMAP
FE
80
80
80
80
FC
80
80
80
80
FE
ENDCHAR
STARTCHAR .uni0046
ENCODING 70
SWIDTH 500 0
DWIDTH 8 0
BBX 7 11 0 0
BITMAP
FE
80
80
80
80
FC
80
80
80
80
80
ENDCHAR
STARTCHAR .uni0047
ENCODING 71
SWIDTH 500 0
DWIDTH 8 0
BBX 7 11 0 0
BITMAP
38
44
82
80
80
8E
82
82
82
44
38
ENDCHAR
STARTCHAR .uni0048
ENCODING 72
SWIDTH 500 0
DWIDTH 8 0
BBX 7 11 0 0
BITMAP
82
82
82
82
82
FE
82
82
82
82
82
ENDCHAR
STARTCHAR .uni0049
ENCODING 73
SWIDTH 500 0
DWIDTH 8 0
BBX 5 11 1 0
BITMAP
F8
20
20
20
20
20
20
20
20
20
F8
ENDCHAR
STARTCHAR .uni004A
ENCODING 74
SWIDTH 500 0
DWIDTH 8 0
BBX 7 11 0 0
BITMAP
02
02
02
02
02
02
02
82
82
44
38
ENDCHAR
STARTCHAR .uni004B
ENCODING 75
SWIDTH 500 0
DWIDTH 8 0
BBX 7 11 0 0
BITMAP
82
84
88
90
A0
C0
A0
90
88
84
82
ENDCHAR
STARTCHAR .uni004C
ENCODING 76
SWIDTH 500 0
DWIDTH 8 0
BBX 7 11 0 0
BITMAP
80
80
80
80
80
80
80
80
80
80
FE
ENDCHAR
STARTCHAR .uni004D
ENCODING 77
SWIDTH 500 0
DWIDTH 8 0
BBX 7 11 0 0
BITMAP
82
C6
AA
92
82
82
82
82
82
82
82
ENDCHAR
STARTCHAR .uni004E
ENCODING 78
SWIDTH 500 0
DWIDTH 8 0
BBX 7 11 0 0
BITMAP
82
C2
A2
92
8A
86
82
82
82
82
82
ENDCHAR
STARTCHAR .uni004F
ENCODING 79
SWIDTH 500 0
DWIDTH 8 0
BBX 7 11 0 0
BITMAP
38
44
82
82
82
82
82
82
82
44
38
ENDCHAR
STARTCHAR .uni0050
ENCODING 80
SWIDTH 500 0
DWIDTH 8 0
BBX 7 11 0 0
BITMAP
F8
84
82
82
84
F8
80
80
80
80
80
ENDCHAR
STARTCHAR .uni0051
ENCODING 81
SWIDTH 500 0
DWIDTH 8 0
BBX 7 11 0 0
BITMAP
38
44
82
82
82
82
82
82
8A
44
3A
ENDCHAR
STARTCHAR .uni0052
ENCODING 82
SWIDTH 500 0
DWIDTH 8 0
BBX 7 11 0 0
BITMAP
F8
84
82
82
84
F8
84
82
82
82
82
ENDCHAR
STARTCHAR .uni0053
ENCODING 83
SWIDTH 500 0
DWIDTH 8 0
BBX 7 11 0 0
BITMAP
38
44
82
80
40
38
04
02
82
44
38
ENDCHAR
STARTCHAR .uni0054
ENCODING 84
SWIDTH 500 0
DWIDTH 8 0
BBX 7 11 0 0
BITMAP
FE
10
10
10
10
10
10
10
10
10
10
ENDCHAR
STARTCHAR .uni0055
ENCODING 85
SWIDTH 500 0
DWIDTH 8 0
BBX 7 11 0 0
BITMAP
82
82
82
82
82
82
82
82
82
44
38
ENDCHAR
STARTCHAR .uni0056
ENCODING 86
SWIDTH 500 0
DWIDTH 8 0
BBX 7 11 0 0
BITMAP
82
82
82
82
82
82
82
82
44
28
10
ENDCHAR
STARTCHAR .uni0057
ENCODING 87
SWIDTH 500 0
DWIDTH 8 0
BBX 7 11 0 0
BITMAP
82
82
82
82
82
82
82
92
AA
C6
82
ENDCHAR
STARTCHAR .uni0058
ENCODING 88
SWIDTH 500 0
DWIDTH 8 0
BBX 7 11 0 0
BITMAP
82
82
82
44
28
10
28
44
82
82
82
ENDCHAR
STARTCHAR .uni0059
ENCODING 89
SWIDTH 500 0
DWIDTH 8 0
BBX 7 11 0 0
BITMAP
82
82
82
44
28
10
10
10
10
10
10
ENDCHAR
STARTCHAR .uni005A
ENCODING 90
SWIDTH 500 0
DWIDTH 8 0
BBX 7 11 0 0
BITMAP
FE
02
02
04
08
10
20
40
80
80
FE
ENDCHAR
STARTCHAR .uni005B
ENCODING 91
SWIDTH 500 0
DWIDTH 8 0
BBX 3 13 2 -2
BITMAP
E0
80
80
80
80
80
80
80
80
80
80
80
E0
ENDCHAR
STARTCHAR .uni005C
ENCODING 92
SWIDTH 500 0
DWIDTH 8 0
BBX 7 7 0 2
BITMAP
80
40
20
10
08
04
02
ENDCHAR
STARTCHAR .uni005D
ENCODING 93
SWIDTH 500 0
DWIDTH 8 0
BBX 3 13 2 -2
BITMAP
E0
20
20
20
20
20
20
20
20
20
20
20
E0
ENDCHAR
STARTCHAR .uni005E
ENCODING 94
SWIDTH 500 0
DWIDTH 8 0
BBX 5 3 1 8
BITMAP
20
50
88
ENDCHAR
STARTCHAR .uni005F
ENCODING 95
SWIDTH 500 0
DWIDTH 8 0
BBX 5 1 1 0
BITMAP
F8
ENDCHAR
STARTCHAR .uni0060
ENCODING 96
SWIDTH 500 0
DWIDTH 8 0
BBX 3 3 2 8
BITMAP
80
40
20
ENDCHAR
STARTCHAR .uni0061
ENCODING 97
SWIDTH 500 0
DWIDTH 8 0
BBX 7 7 0 0
BITMAP
78
04
02
7E
82
82
7E
ENDCHAR
STARTCHAR .uni0062
ENCODING 98
SWIDTH 500 0
DWIDTH 8 0
BBX 7 11 0 0
BITMAP
80
80
80
80
F8
84
82
82
82
84
F8
ENDCHAR
STARTCHAR .uni0063
ENCODING 99
SWIDTH 500 0
DWIDTH 8 0
BBX 7 7 0 0
BITMAP
3C
42
80
80
80
42
3C
ENDCHAR
STARTCHAR .uni0064
ENCODING 100
SWIDTH 500 0
DWIDTH 8 0
BBX 7 11 0 0
BITMAP
02
02
02
02
3E
42
82
82
82
42
3E
ENDCHAR
STARTCHAR .uni0065
ENCODING 101
SWIDTH 500 0
DWIDTH 8 0
BBX 7 7 0 0
BITMAP
38
44
82
FE
80
40
3C
ENDCHAR
STARTCHAR .uni0066
ENCODING 102
SWIDTH 500 0
DWIDTH 8 0
BBX 7 11 0 0
BITMAP
0E
10
20
20
F8
20
20
20
20
20
20
ENDCHAR
STARTCHAR .uni0067
ENCODING 103
SWIDTH 500 0
DWIDTH 8 0
BBX 7 11 0 -4
BITMAP
3E
42
82
82
82
42
3E
02
02
04
38
ENDCHAR
STARTCHAR .uni0068
ENCODING 104
SWIDTH 500 0
DWIDTH 8 0
BBX 7 11 0 0
BITMAP
80
80
80
80
F8
84
82
82
82
82
82
ENDCHAR
STARTCHAR .uni0069
ENCODING 105
SWIDTH 500 0
DWIDTH 8 0
BBX 7 10 0 0
BITMAP
10
00
00
70
10
10
10
10
10
FE
ENDCHAR
STARTCHAR .uni006A
ENCODING 106
SWIDTH 500 0
DWIDTH 8 0
BBX 5 14 1 -4
BITMAP
08
00
00
38
08
08
08
08
08
08
08
08
10
E0
ENDCHAR
STARTCHAR .uni006B
ENCODING 107
SWIDTH 500 0
DWIDTH 8 0
BBX 5 11 1 0
BITMAP
80
80
80
80
88
90
A0
C0
A0
90
88
ENDCHAR
STARTCHAR .uni006C
ENCODING 108
SWIDTH 500 0
DWIDTH 8 0
BBX 7 11 0 0
BITMAP
70
10
10
10
10
10
10
10
10
10
FE
ENDCHAR
STARTCHAR .uni006D
ENCODING 109
SWIDTH 500 0
DWIDTH 8 0
BBX 7 7 0 0
BITMAP
38
54
92
92
92
92
92
ENDCHAR
STARTCHAR .uni006E
ENCODING 110
SWIDTH 500 0
DWIDTH 8 0
BBX 7 7 0 0
BITMAP
F8
84
82
82
82
82
82
ENDCHAR
STARTCHAR .uni006F
ENCODING 111
SWIDTH 500 0
DWIDTH 8 0
BBX 7 7 0 0
BITMAP
38
44
82
82
82
44
38
ENDCHAR
STARTCHAR .uni0070
ENCODING 112
SWIDTH 500 0
DWIDTH 8 0
BBX 7 11 0 -4
BITMAP
F8
84
82
82
82
84
F8
80
80
80
80
ENDCHAR
STARTCHAR .uni0071
ENCODING 113
SWIDTH 500 0
DWIDTH 8 0
BBX 7 11 0 -4
BITMAP
3E
42
82
82
82
42
3E
02
02
02
02
ENDCHAR
STARTCHAR .uni0072
ENCODING 114
SWIDTH 500 0
DWIDTH 8 0
BBX 7 7 0 0
BITMAP
F8
84
82
80
80
80
80
ENDCHAR
STARTCHAR .uni0073
ENCODING 115
SWIDTH 500 0
DWIDTH 8 0
BBX 7 7 0 0
BITMAP
3C
40
80
7C
02
04
78
ENDCHAR
STARTCHAR .uni0074
ENCODING 116
SWIDTH 500 0
DWIDTH 8 0
BBX 7 11 0 0
BITMAP
10
10
10
10
FE
10
10
10
10
10
10
ENDCHAR
STARTCHAR .uni0075
ENCODING 117
SWIDTH 500 0
DWIDTH 8 0
BBX 7 7 0 0
BITMAP
82
82
82
82
82
44
38
ENDCHAR
STARTCHAR .uni0076
ENCODING 118
SWIDTH 500 0
DWIDTH 8 0
BBX 7 7 0 0
BITMAP
82
82
82
82
44
28
10
ENDCHAR
STARTCHAR .uni0077
ENCODING 119
SWIDTH 500 0
DWIDTH 8 0
BBX 7 7 0 0
BITMAP
92
92
92
92
92
54
38
ENDCHAR
STARTCHAR .uni0078
ENCODING 120
SWIDTH 500 0
DWIDTH 8 0
BBX 7 7 0 0
BITMAP
82
44
28
10
28
44
82
ENDCHAR
STARTCHAR .uni0079
ENCODING 121
SWIDTH 500 0
DWIDTH 8 0
BBX 7 11 0 -4
BITMAP
82
82
82
82
82
42
3E
02
02
04
38
ENDCHAR
STARTCHAR .uni007A
ENCODING 122
SWIDTH 500 0
DWIDTH 8 0
BBX 7 7 0 0
BITMAP
FE
04
08
10
20
40
FE
ENDCHAR
STARTCHAR .uni007B
ENCODING 123
SWIDTH 500 0
DWIDTH 8 0
BBX 3 13 2 -2
BITMAP
20
40
40
40
40
40
80
40
40
40
40
40
20
ENDCHAR
STARTCHAR .uni007C
ENCODING 124
SWIDTH 500 0
DWIDTH 8 0
BBX 1 13 3 -2
BITMAP
80
80
80
80
80
80
80
80
80
80
80
80
80
ENDCHAR
STARTCHAR .uni007D
ENCODING 125
SWIDTH 500 0
DWIDTH 8 0
BBX 3 13 2 -2
BITMAP
80
40
40
40
40
40
20
40
40
40
40
40
80
ENDCHAR
STARTCHAR .uni007E
ENCODING 126
SWIDTH 500 0
DWIDTH 8 0
BBX 5 3 1 4
BITMAP
40
A8
10
ENDCHAR
STARTCHAR .uni00AC
ENCODING 172
SWIDTH 500 0
DWIDTH 8 0
BBX 7 3 0 8
BITMAP
FE
02
02
ENDCHAR
STARTCHAR .uni00B7
ENCODING 183
SWIDTH 500 0
DWIDTH 8 0
BBX 1 1 3 5
BITMAP
80
ENDCHAR
STARTCHAR .uni00D7
ENCODING 215
SWIDTH 500 0
DWIDTH 8 0
BBX 5 5 1 3
BITMAP
88
50
20
50
88
ENDCHAR
STARTCHAR .uni0393
ENCODING 915
SWIDTH 500 0
DWIDTH 8 0
BBX 7 11 0 0
BITMAP
FE
80
80
80
80
80
80
80
80
80
80
ENDCHAR
STARTCHAR .uni0394
ENCODING 916
SWIDTH 1000 0
DWIDTH 16 0
BBX 11 11 2 0
BITMAP
0400
0400
0A00
0A00
1100
1100
2080
2080
4040
4040
FFE0
ENDCHAR
STARTCHAR .uni039B
ENCODING 923
SWIDTH 1000 0
DWIDTH 16 0
BBX 11 11 2 0
BITMAP
0400
0400
0A00
0A00
1100
1100
2080
2080
4040
4040
C060
ENDCHAR
STARTCHAR .uni03A0
ENCODING 928
SWIDTH 500 0
DWIDTH 8 0
BBX 7 11 0 0
BITMAP
FE
82
82
82
82
82
82
82
82
82
82
ENDCHAR
STARTCHAR .uni03A3
ENCODING 931
SWIDTH 500 0
DWIDTH 8 0
BBX 7 11 0 0
BITMAP
FE
80
40
20
10
08
10
20
40
80
FE
ENDCHAR
STARTCHAR .uni03B1
ENCODING 945
SWIDTH 500 0
DWIDTH 8 0
BBX 7 7 0 0
BITMAP
32
4A
84
84
84
4A
32
ENDCHAR
STARTCHAR .uni03B2
ENCODING 946
SWIDTH 500 0
DWIDTH 8 0
BBX 7 13 0 -2
BITMAP
70
88
84
88
90
88
84
82
84
88
F0
80
80
ENDCHAR
STARTCHAR .uni03B3
ENCODING 947
SWIDTH 500 0
DWIDTH 8 0
BBX 7 9 0 -2
BITMAP
82
82
82
82
44
28
10
20
C0
ENDCHAR
STARTCHAR .uni03B4
ENCODING 948
SWIDTH 500 0
DWIDTH 8 0
BBX 7 11 0 0
BITMAP
3C
40
80
40
38
44
82
82
82
44
38
ENDCHAR
STARTCHAR .uni03B5
ENCODING 949
SWIDTH 500 0
DWIDTH 8 0
BBX 7 7 0 0
BITMAP
3E
40
80
FE
80
40
3E
ENDCHAR
STARTCHAR .uni03B8
ENCODING 952
SWIDTH 500 0
DWIDTH 8 0
BBX 7 11 0 0
BITMAP
38
44
82
82
82
FE
82
82
82
44
38
ENDCHAR
STARTCHAR .uni03BB
ENCODING 955
SWIDTH 500 0
DWIDTH 8 0
BBX 7 11 0 0
BITMAP
80
80
80
40
20
10
28
44
82
82
82
ENDCHAR
STARTCHAR .uni03BC
ENCODING 956
SWIDTH 500 0
DWIDTH 8 0
BBX 7 9 0 -2
BITMAP
82
82
82
82
82
84
F8
80
80
ENDCHAR
STARTCHAR .uni03BD
ENCODING 957
SWIDTH 500 0
DWIDTH 8 0
BBX 7 7 0 0
BITMAP
82
82
82
84
88
90
E0
ENDCHAR
STARTCHAR .uni03C0
ENCODING 960
SWIDTH 500 0
DWIDTH 8 0
BBX 7 7 0 0
BITMAP
FE
44
44
44
44
44
44
ENDCHAR
STARTCHAR .uni03C3
ENCODING 963
SWIDTH 500 0
DWIDTH 8 0
BBX 7 7 0 0
BITMAP
3E
44
84
84
84
48
30
ENDCHAR
STARTCHAR .uni03C4
ENCODING 964
SWIDTH 500 0
DWIDTH 8 0
BBX 7 7 0 0
BITMAP
FE
10
10
10
10
10
10
ENDCHAR
STARTCHAR .uni03C6
ENCODING 966
SWIDTH 500 0
DWIDTH 8 0
BBX 7 11 0 0
BITMAP
84
8A
92
92
92
54
38
10
10
10
10
ENDCHAR
STARTCHAR .uni03C7
ENCODING 967
SWIDTH 500 0
DWIDTH 8 0
BBX 7 11 0 0
BITMAP
02
02
82
44
28
10
28
44
82
80
80
ENDCHAR
STARTCHAR .uni03C8
ENCODING 968
SWIDTH 500 0
DWIDTH 8 0
BBX 7 11 0 0
BITMAP
92
92
92
92
92
54
38
10
10
10
10
ENDCHAR
STARTCHAR .uni201C
ENCODING 8220
SWIDTH 500 0
DWIDTH 8 0
BBX 5 3 1 8
BITMAP
A0
50
28
ENDCHAR
STARTCHAR .uni201D
ENCODING 8221
SWIDTH 500 0
DWIDTH 8 0
BBX 5 3 1 8
BITMAP
28
50
A0
ENDCHAR
STARTCHAR .uni2102
ENCODING 8450
SWIDTH 500 0
DWIDTH 8 0
BBX 7 11 0 0
BITMAP
38
64
A2
A0
A0
A0
A0
A0
A2
64
38
ENDCHAR
STARTCHAR .uni2115
ENCODING 8469
SWIDTH 500 0
DWIDTH 8 0
BBX 7 11 0 0
BITMAP
82
C2
A2
D2
AA
96
8A
86
82
82
82
ENDCHAR
STARTCHAR .uni211A
ENCODING 8474
SWIDTH 500 0
DWIDTH 8 0
BBX 7 11 0 0
BITMAP
38
64
A2
A2
A2
A2
A2
A2
AA
64
3A
ENDCHAR
STARTCHAR .uni211D
ENCODING 8477
SWIDTH 500 0
DWIDTH 8 0
BBX 7 11 0 0
BITMAP
F8
A4
A2
A2
A4
B8
A4
A2
A2
A2
A2
ENDCHAR
STARTCHAR .uni2124
ENCODING 8484
SWIDTH 500 0
DWIDTH 8 0
BBX 7 11 0 0
BITMAP
FE
02
06
0A
14
28
50
A0
C0
80
FE
ENDCHAR
STARTCHAR .uni2190
ENCODING 8592
SWIDTH 500 0
DWIDTH 8 0
BBX 7 5 0 3
BITMAP
20
40
BE
40
20
ENDCHAR
STARTCHAR .uni2192
ENCODING 8594
SWIDTH 500 0
DWIDTH 8 0
BBX 7 5 0 3
BITMAP
08
04
FA
04
08
ENDCHAR
STARTCHAR .uni2194
ENCODING 8596
SWIDTH 500 0
DWIDTH 8 0
BBX 7 5 0 3
BITMAP
28
44
BA
44
28
ENDCHAR
STARTCHAR .uni2200
ENCODING 8704
SWIDTH 1000 0
DWIDTH 16 0
BBX 11 11 2 0
BITMAP
C060
4040
4040
2080
2080
1F00
1100
0A00
0A00
0400
0400
ENDCHAR
STARTCHAR .uni2202
ENCODING 8706
SWIDTH 500 0
DWIDTH 8 0
BBX 7 11 0 0
BITMAP
30
08
04
02
02
3E
42
82
82
42
3C
ENDCHAR
STARTCHAR .uni2203
ENCODING 8707
SWIDTH 1000 0
DWIDTH 16 0
BBX 7 11 4 0
BITMAP
FE
02
02
02
02
7E
02
02
02
02
FE
ENDCHAR
STARTCHAR .uni2205
ENCODING 8709
SWIDTH 1000 0
DWIDTH 16 0
BBX 11 11 2 0
BITMAP
1F20
20C0
40C0
8120
8220
8420
8820
9020
6040
6080
9F00
ENDCHAR
STARTCHAR .uni2208
ENCODING 8712
SWIDTH 500 0
DWIDTH 8 0
BBX 7 9 0 1
BITMAP
1E
20
40
80
FE
80
40
20
1E
ENDCHAR
STARTCHAR .uni2209
ENCODING 8713
SWIDTH 500 0
DWIDTH 8 0
BBX 7 9 0 1
BITMAP
1E
22
44
88
FE
A0
40
A0
1E
ENDCHAR
STARTCHAR .uni2218
ENCODING 8728
SWIDTH 500 0
DWIDTH 8 0
BBX 3 3 2 4
BITMAP
40
A0
40
ENDCHAR
STARTCHAR .uni221E
ENCODING 8734
SWIDTH 500 0
DWIDTH 8 0
BBX 7 5 0 3
BITMAP
44
AA
92
AA
44
ENDCHAR
STARTCHAR .uni2227
ENCODING 8743
SWIDTH 500 0
DWIDTH 8 0
BBX 7 4 0 3
BITMAP
10
28
44
82
ENDCHAR
STARTCHAR .uni2228
ENCODING 8744
SWIDTH 500 0
DWIDTH 8 0
BBX 7 4 0 3
BITMAP
82
44
28
10
ENDCHAR
STARTCHAR .uni2229
ENCODING 8745
SWIDTH 500 0
DWIDTH 8 0
BBX 7 11 0 0
BITMAP
38
44
82
82
82
82
82
82
82
82
82
ENDCHAR
STARTCHAR .uni222A
ENCODING 8746
SWIDTH 500 0
DWIDTH 8 0
BBX 7 11 0 0
BITMAP
82
82
82
82
82
82
82
82
82
44
38
ENDCHAR
STARTCHAR .uni2260
ENCODING 8800
SWIDTH 500 0
DWIDTH 8 0
BBX 7 9 0 1
BITMAP
10
10
FE
10
10
10
FE
10
10
ENDCHAR
STARTCHAR .uni2261
ENCODING 8801
SWIDTH 500 0
DWIDTH 8 0
BBX 7 5 0 3
BITMAP
FE
00
FE
00
FE
ENDCHAR
STARTCHAR .uni2264
ENCODING 8804
SWIDTH 500 0
DWIDTH 8 0
BBX 5 11 1 0
BITMAP
08
10
20
40
80
40
20
10
08
00
F8
ENDCHAR
STARTCHAR .uni2265
ENCODING 8805
SWIDTH 500 0
DWIDTH 8 0
BBX 5 11 1 0
BITMAP
80
40
20
10
08
10
20
40
80
00
F8
ENDCHAR
STARTCHAR .uni2282
ENCODING 8834
SWIDTH 500 0
DWIDTH 8 0
BBX 7 11 0 0
BITMAP
1E
20
40
80
80
80
80
80
40
20
1E
ENDCHAR
STARTCHAR .uni2286
ENCODING 8838
SWIDTH 500 0
DWIDTH 8 0
BBX 7 13 0 -2
BITMAP
1E
20
40
80
80
80
80
80
40
20
1E
00
1E
ENDCHAR
STARTCHAR .uni22C2
ENCODING 8898
SWIDTH 500 0
DWIDTH 8 0
BBX 7 15 0 -4
BITMAP
38
44
82
82
82
82
82
82
82
82
82
82
82
82
82
ENDCHAR
STARTCHAR .uni22C3
ENCODING 8899
SWIDTH 500 0
DWIDTH 8 0
BBX 7 15 0 -4
BITMAP
82
82
82
82
82
82
82
82
82
82
82
82
82
44
38
ENDCHAR
STARTCHAR .uni27E8
ENCODING 10216
SWIDTH 500 0
DWIDTH 8 0
BBX 7 13 0 -2
BITMAP
02
04
08
10
20
40
80
40
20
10
08
04
02
ENDCHAR
STARTCHAR .uni27E9
ENCODING 10217
SWIDTH 500 0
DWIDTH 8 0
BBX 7 13 0 -2
BITMAP
80
40
20
10
08
04
02
04
08
10
20
40
80
ENDCHAR
ENDFONT
